# xmcd
#
# Track frame offsets:
#	150
#	11311
#	25957
#	41477
#	53590
#	67540
#	79428
#	88811
#	101495
#	111213
#	127163
#	143739
#	157567
#	165319
#	177575
#	190356
#
# Disc length: 2721 seconds
#
# Revision: 1
# Processed by: cddbd v1.5.2PL0 Copyright (c) Steve Scherf et al.
# Submitted via: audiograbber 1.83.01
#
DISCID=c40a9f10
DTITLE=Various Artist - Hits 'n' More - The Ulimate Country Collection CD 2
DYEAR=1900
DGENRE=Pop
TTITLE0=Cash, Johnny - Oh Lonesome me
TTITLE1=Denver, John - Take Me Home, Country Roads
TTITLE2=Newton-John, Olivia - Help Me Make It Through The Night
TTITLE3=Wynette, Tammy - Stand By Your Man
TTITLE4=Williams, Don - Crying In The Rain
TTITLE5=Laine, Frankie - High Noon
TTITLE6=Hawkins, Ronnie - Hey Good Lookin'
TTITLE7=Spears, Billy Joe - '57 Chevrolet
TTITLE8=Conway Twitty - Ever Since You Went Away
TTITLE9=Francis, Connie - It Doesn't Matter Anymore
TTITLE10=Lightfoot, Gordon - Diddley Dee,Diddley Dee
TTITLE11=Murray, Anne - The Last Thing On My Mind
TTITLE12=Reeves, Jim - The Oklahoma Hills
TTITLE13=Haggard, Merle - Everybody's Had The Blues
TTITLE14=Oak Ridge Boys, The - Thank God I'm Reborn
TTITLE15=Newton, Juice - Listen To The Radio
EXTD=
EXTT0=
EXTT1=
EXTT2=
EXTT3=
EXTT4=
EXTT5=
EXTT6=
EXTT7=
EXTT8=
EXTT9=
EXTT10=
EXTT11=
EXTT12=
EXTT13=
EXTT14=
EXTT15=
PLAYORDER=
